<mxfile host="Electron" agent="Mozilla/5.0 (Windows NT 10.0; Win64; x64) AppleWebKit/537.36 (KHTML, like Gecko) draw.io/26.2.2 Chrome/134.0.6998.178 Electron/35.1.2 Safari/537.36" version="26.2.2">
  <diagram id="C5RBs43oDa-KdzZeNtuy" name="Page-1">
    <mxGraphModel dx="1100" dy="669" grid="1" gridSize="10" guides="1" tooltips="1" connect="1" arrows="1" fold="1" page="1" pageScale="1" pageWidth="827" pageHeight="1169" math="0" shadow="0">
      <root>
        <mxCell id="WIyWlLk6GJQsqaUBKTNV-0" />
        <mxCell id="WIyWlLk6GJQsqaUBKTNV-1" parent="WIyWlLk6GJQsqaUBKTNV-0" />
        <mxCell id="1jKm-HE4y8aNobQPK7Xw-5" style="edgeStyle=orthogonalEdgeStyle;rounded=0;orthogonalLoop=1;jettySize=auto;html=1;exitX=0.5;exitY=1;exitDx=0;exitDy=0;entryX=0.5;entryY=0;entryDx=0;entryDy=0;" edge="1" parent="WIyWlLk6GJQsqaUBKTNV-1" source="1jKm-HE4y8aNobQPK7Xw-1" target="1jKm-HE4y8aNobQPK7Xw-2">
          <mxGeometry relative="1" as="geometry" />
        </mxCell>
        <mxCell id="1jKm-HE4y8aNobQPK7Xw-1" value="&lt;font style=&quot;font-size: 20px;&quot;&gt;socket&lt;/font&gt;" style="rounded=0;whiteSpace=wrap;html=1;" vertex="1" parent="WIyWlLk6GJQsqaUBKTNV-1">
          <mxGeometry x="140" y="10" width="120" height="60" as="geometry" />
        </mxCell>
        <mxCell id="1jKm-HE4y8aNobQPK7Xw-6" style="edgeStyle=orthogonalEdgeStyle;rounded=0;orthogonalLoop=1;jettySize=auto;html=1;exitX=0.5;exitY=1;exitDx=0;exitDy=0;entryX=0.5;entryY=0;entryDx=0;entryDy=0;" edge="1" parent="WIyWlLk6GJQsqaUBKTNV-1" source="1jKm-HE4y8aNobQPK7Xw-2" target="1jKm-HE4y8aNobQPK7Xw-3">
          <mxGeometry relative="1" as="geometry" />
        </mxCell>
        <mxCell id="1jKm-HE4y8aNobQPK7Xw-2" value="&lt;font style=&quot;font-size: 20px;&quot;&gt;bind&lt;/font&gt;" style="rounded=0;whiteSpace=wrap;html=1;" vertex="1" parent="WIyWlLk6GJQsqaUBKTNV-1">
          <mxGeometry x="140" y="110" width="120" height="60" as="geometry" />
        </mxCell>
        <mxCell id="1jKm-HE4y8aNobQPK7Xw-7" style="edgeStyle=orthogonalEdgeStyle;rounded=0;orthogonalLoop=1;jettySize=auto;html=1;exitX=0.5;exitY=1;exitDx=0;exitDy=0;entryX=0.5;entryY=0;entryDx=0;entryDy=0;" edge="1" parent="WIyWlLk6GJQsqaUBKTNV-1" source="1jKm-HE4y8aNobQPK7Xw-3" target="1jKm-HE4y8aNobQPK7Xw-4">
          <mxGeometry relative="1" as="geometry" />
        </mxCell>
        <mxCell id="1jKm-HE4y8aNobQPK7Xw-3" value="&lt;font style=&quot;font-size: 20px;&quot;&gt;listen&lt;/font&gt;" style="rounded=0;whiteSpace=wrap;html=1;" vertex="1" parent="WIyWlLk6GJQsqaUBKTNV-1">
          <mxGeometry x="140" y="210" width="120" height="60" as="geometry" />
        </mxCell>
        <mxCell id="1jKm-HE4y8aNobQPK7Xw-17" style="edgeStyle=orthogonalEdgeStyle;rounded=0;orthogonalLoop=1;jettySize=auto;html=1;exitX=0.5;exitY=1;exitDx=0;exitDy=0;entryX=0.5;entryY=0;entryDx=0;entryDy=0;" edge="1" parent="WIyWlLk6GJQsqaUBKTNV-1" source="1jKm-HE4y8aNobQPK7Xw-4" target="1jKm-HE4y8aNobQPK7Xw-8">
          <mxGeometry relative="1" as="geometry" />
        </mxCell>
        <mxCell id="1jKm-HE4y8aNobQPK7Xw-4" value="&lt;font style=&quot;font-size: 20px;&quot;&gt;accept&lt;/font&gt;" style="rounded=0;whiteSpace=wrap;html=1;" vertex="1" parent="WIyWlLk6GJQsqaUBKTNV-1">
          <mxGeometry x="140" y="310" width="120" height="60" as="geometry" />
        </mxCell>
        <mxCell id="1jKm-HE4y8aNobQPK7Xw-18" style="edgeStyle=orthogonalEdgeStyle;rounded=0;orthogonalLoop=1;jettySize=auto;html=1;exitX=0.5;exitY=1;exitDx=0;exitDy=0;entryX=0.5;entryY=0;entryDx=0;entryDy=0;" edge="1" parent="WIyWlLk6GJQsqaUBKTNV-1" source="1jKm-HE4y8aNobQPK7Xw-8" target="1jKm-HE4y8aNobQPK7Xw-11">
          <mxGeometry relative="1" as="geometry" />
        </mxCell>
        <mxCell id="1jKm-HE4y8aNobQPK7Xw-19" style="edgeStyle=orthogonalEdgeStyle;rounded=0;orthogonalLoop=1;jettySize=auto;html=1;exitX=0.5;exitY=1;exitDx=0;exitDy=0;entryX=0.5;entryY=0;entryDx=0;entryDy=0;" edge="1" parent="WIyWlLk6GJQsqaUBKTNV-1" source="1jKm-HE4y8aNobQPK7Xw-8" target="1jKm-HE4y8aNobQPK7Xw-12">
          <mxGeometry relative="1" as="geometry" />
        </mxCell>
        <mxCell id="1jKm-HE4y8aNobQPK7Xw-8" value="创建套接字符描述符" style="rounded=0;whiteSpace=wrap;html=1;" vertex="1" parent="WIyWlLk6GJQsqaUBKTNV-1">
          <mxGeometry x="140" y="410" width="120" height="60" as="geometry" />
        </mxCell>
        <mxCell id="1jKm-HE4y8aNobQPK7Xw-22" style="edgeStyle=orthogonalEdgeStyle;rounded=0;orthogonalLoop=1;jettySize=auto;html=1;exitX=0.5;exitY=1;exitDx=0;exitDy=0;entryX=0.5;entryY=0;entryDx=0;entryDy=0;" edge="1" parent="WIyWlLk6GJQsqaUBKTNV-1" source="1jKm-HE4y8aNobQPK7Xw-9" target="1jKm-HE4y8aNobQPK7Xw-10">
          <mxGeometry relative="1" as="geometry" />
        </mxCell>
        <mxCell id="1jKm-HE4y8aNobQPK7Xw-9" value="&lt;font style=&quot;font-size: 20px;&quot;&gt;socket&lt;/font&gt;" style="rounded=0;whiteSpace=wrap;html=1;" vertex="1" parent="WIyWlLk6GJQsqaUBKTNV-1">
          <mxGeometry x="590" y="210" width="120" height="60" as="geometry" />
        </mxCell>
        <mxCell id="1jKm-HE4y8aNobQPK7Xw-23" style="edgeStyle=orthogonalEdgeStyle;rounded=0;orthogonalLoop=1;jettySize=auto;html=1;exitX=0.5;exitY=1;exitDx=0;exitDy=0;entryX=0.5;entryY=0;entryDx=0;entryDy=0;" edge="1" parent="WIyWlLk6GJQsqaUBKTNV-1" source="1jKm-HE4y8aNobQPK7Xw-10" target="1jKm-HE4y8aNobQPK7Xw-14">
          <mxGeometry relative="1" as="geometry" />
        </mxCell>
        <mxCell id="1jKm-HE4y8aNobQPK7Xw-24" style="edgeStyle=orthogonalEdgeStyle;rounded=0;orthogonalLoop=1;jettySize=auto;html=1;exitX=0.5;exitY=1;exitDx=0;exitDy=0;entryX=0.5;entryY=0;entryDx=0;entryDy=0;" edge="1" parent="WIyWlLk6GJQsqaUBKTNV-1" source="1jKm-HE4y8aNobQPK7Xw-10" target="1jKm-HE4y8aNobQPK7Xw-15">
          <mxGeometry relative="1" as="geometry" />
        </mxCell>
        <mxCell id="1jKm-HE4y8aNobQPK7Xw-10" value="&lt;font style=&quot;font-size: 20px;&quot;&gt;connect&lt;/font&gt;" style="rounded=0;whiteSpace=wrap;html=1;" vertex="1" parent="WIyWlLk6GJQsqaUBKTNV-1">
          <mxGeometry x="590" y="310" width="120" height="60" as="geometry" />
        </mxCell>
        <mxCell id="1jKm-HE4y8aNobQPK7Xw-20" style="edgeStyle=orthogonalEdgeStyle;rounded=0;orthogonalLoop=1;jettySize=auto;html=1;exitX=0.5;exitY=1;exitDx=0;exitDy=0;entryX=0.5;entryY=0;entryDx=0;entryDy=0;" edge="1" parent="WIyWlLk6GJQsqaUBKTNV-1" source="1jKm-HE4y8aNobQPK7Xw-11" target="1jKm-HE4y8aNobQPK7Xw-13">
          <mxGeometry relative="1" as="geometry" />
        </mxCell>
        <mxCell id="1jKm-HE4y8aNobQPK7Xw-11" value="&lt;font style=&quot;font-size: 20px;&quot;&gt;Wrire/Read&lt;/font&gt;" style="rounded=0;whiteSpace=wrap;html=1;" vertex="1" parent="WIyWlLk6GJQsqaUBKTNV-1">
          <mxGeometry x="30" y="520" width="120" height="60" as="geometry" />
        </mxCell>
        <mxCell id="1jKm-HE4y8aNobQPK7Xw-21" style="edgeStyle=orthogonalEdgeStyle;rounded=0;orthogonalLoop=1;jettySize=auto;html=1;exitX=0.5;exitY=1;exitDx=0;exitDy=0;" edge="1" parent="WIyWlLk6GJQsqaUBKTNV-1" source="1jKm-HE4y8aNobQPK7Xw-12">
          <mxGeometry relative="1" as="geometry">
            <mxPoint x="200" y="620" as="targetPoint" />
          </mxGeometry>
        </mxCell>
        <mxCell id="1jKm-HE4y8aNobQPK7Xw-12" value="Read/Recv" style="rounded=0;whiteSpace=wrap;html=1;" vertex="1" parent="WIyWlLk6GJQsqaUBKTNV-1">
          <mxGeometry x="260" y="520" width="120" height="60" as="geometry" />
        </mxCell>
        <mxCell id="1jKm-HE4y8aNobQPK7Xw-13" value="&lt;font style=&quot;font-size: 20px;&quot;&gt;close&lt;/font&gt;" style="rounded=0;whiteSpace=wrap;html=1;" vertex="1" parent="WIyWlLk6GJQsqaUBKTNV-1">
          <mxGeometry x="140" y="620" width="120" height="60" as="geometry" />
        </mxCell>
        <mxCell id="1jKm-HE4y8aNobQPK7Xw-25" style="edgeStyle=orthogonalEdgeStyle;rounded=0;orthogonalLoop=1;jettySize=auto;html=1;exitX=0.5;exitY=1;exitDx=0;exitDy=0;entryX=0.5;entryY=0;entryDx=0;entryDy=0;" edge="1" parent="WIyWlLk6GJQsqaUBKTNV-1" source="1jKm-HE4y8aNobQPK7Xw-14" target="1jKm-HE4y8aNobQPK7Xw-16">
          <mxGeometry relative="1" as="geometry" />
        </mxCell>
        <mxCell id="1jKm-HE4y8aNobQPK7Xw-14" value="&lt;font style=&quot;font-size: 20px;&quot;&gt;write/send&lt;/font&gt;" style="rounded=0;whiteSpace=wrap;html=1;" vertex="1" parent="WIyWlLk6GJQsqaUBKTNV-1">
          <mxGeometry x="490" y="520" width="120" height="60" as="geometry" />
        </mxCell>
        <mxCell id="1jKm-HE4y8aNobQPK7Xw-26" style="edgeStyle=orthogonalEdgeStyle;rounded=0;orthogonalLoop=1;jettySize=auto;html=1;exitX=0.5;exitY=1;exitDx=0;exitDy=0;entryX=0.5;entryY=0;entryDx=0;entryDy=0;" edge="1" parent="WIyWlLk6GJQsqaUBKTNV-1" source="1jKm-HE4y8aNobQPK7Xw-15" target="1jKm-HE4y8aNobQPK7Xw-16">
          <mxGeometry relative="1" as="geometry" />
        </mxCell>
        <mxCell id="1jKm-HE4y8aNobQPK7Xw-15" value="&lt;font style=&quot;font-size: 20px;&quot;&gt;Read/Recv&lt;/font&gt;" style="rounded=0;whiteSpace=wrap;html=1;" vertex="1" parent="WIyWlLk6GJQsqaUBKTNV-1">
          <mxGeometry x="690" y="520" width="120" height="60" as="geometry" />
        </mxCell>
        <mxCell id="1jKm-HE4y8aNobQPK7Xw-16" value="&lt;font style=&quot;font-size: 17px;&quot;&gt;close&lt;/font&gt;" style="rounded=0;whiteSpace=wrap;html=1;" vertex="1" parent="WIyWlLk6GJQsqaUBKTNV-1">
          <mxGeometry x="590" y="620" width="120" height="60" as="geometry" />
        </mxCell>
        <mxCell id="1jKm-HE4y8aNobQPK7Xw-27" value="" style="endArrow=classic;startArrow=classic;html=1;rounded=0;exitX=1;exitY=0.5;exitDx=0;exitDy=0;entryX=0;entryY=0.5;entryDx=0;entryDy=0;" edge="1" parent="WIyWlLk6GJQsqaUBKTNV-1" source="1jKm-HE4y8aNobQPK7Xw-11" target="1jKm-HE4y8aNobQPK7Xw-12">
          <mxGeometry width="50" height="50" relative="1" as="geometry">
            <mxPoint x="360" y="250" as="sourcePoint" />
            <mxPoint x="410" y="200" as="targetPoint" />
          </mxGeometry>
        </mxCell>
        <mxCell id="1jKm-HE4y8aNobQPK7Xw-28" value="" style="shape=flexArrow;endArrow=classic;startArrow=classic;html=1;rounded=0;entryX=0;entryY=0.5;entryDx=0;entryDy=0;exitX=1;exitY=0.5;exitDx=0;exitDy=0;" edge="1" parent="WIyWlLk6GJQsqaUBKTNV-1" source="1jKm-HE4y8aNobQPK7Xw-12" target="1jKm-HE4y8aNobQPK7Xw-14">
          <mxGeometry width="100" height="100" relative="1" as="geometry">
            <mxPoint x="340" y="280" as="sourcePoint" />
            <mxPoint x="440" y="180" as="targetPoint" />
          </mxGeometry>
        </mxCell>
        <mxCell id="1jKm-HE4y8aNobQPK7Xw-33" value="s" style="endArrow=classic;html=1;rounded=0;exitX=0;exitY=0.5;exitDx=0;exitDy=0;entryX=1;entryY=0.5;entryDx=0;entryDy=0;" edge="1" parent="WIyWlLk6GJQsqaUBKTNV-1" source="1jKm-HE4y8aNobQPK7Xw-10" target="1jKm-HE4y8aNobQPK7Xw-8">
          <mxGeometry relative="1" as="geometry">
            <mxPoint x="370" y="330" as="sourcePoint" />
            <mxPoint x="530" y="330" as="targetPoint" />
          </mxGeometry>
        </mxCell>
        <mxCell id="1jKm-HE4y8aNobQPK7Xw-34" value="客户端发送请求" style="edgeLabel;resizable=0;html=1;;align=center;verticalAlign=middle;" connectable="0" vertex="1" parent="1jKm-HE4y8aNobQPK7Xw-33">
          <mxGeometry relative="1" as="geometry" />
        </mxCell>
        <mxCell id="1jKm-HE4y8aNobQPK7Xw-39" value="&lt;font style=&quot;font-size: 18px;&quot;&gt;数据流&lt;/font&gt;" style="text;html=1;align=center;verticalAlign=middle;whiteSpace=wrap;rounded=0;" vertex="1" parent="WIyWlLk6GJQsqaUBKTNV-1">
          <mxGeometry x="410" y="520" width="60" height="30" as="geometry" />
        </mxCell>
      </root>
    </mxGraphModel>
  </diagram>
</mxfile>
